<svg xmlns="http://www.w3.org/2000/svg" xmlns:xlink="http://www.w3.org/1999/xlink" width="22" height="14" viewBox="0 0 22 14">
    <defs>
        <path id="a" d="M0 .034h21.707V13H0z"/>
    </defs>
    <g fill="none" fill-rule="evenodd">
        <mask id="b" fill="#fff">
            <use xlink:href="#a"/>
        </mask>
        <path fill="#000" fill-opacity=".54" d="M18.276 9.05c-4.073 4.247-10.7 4.247-14.774 0L1.037 6.479 3.43 3.984c4.073-4.248 10.7-4.248 14.775 0l2.465 2.57-2.394 2.496zm.447-5.607c-4.36-4.546-11.452-4.546-15.811 0L0 6.479 2.984 9.59C5.164 11.863 8.026 13 10.89 13c2.863 0 5.726-1.137 7.905-3.41l2.912-3.035-2.984-3.112z" mask="url(#b)"/>
        <path fill="#000" fill-opacity=".54" d="M10.625 4A2.628 2.628 0 0 0 8 6.625a.375.375 0 0 0 .75 0c0-1.034.841-1.875 1.875-1.875a.375.375 0 0 0 0-.75"/>
        <path fill="#000" fill-opacity=".54" d="M11 10.23A4.236 4.236 0 0 1 6.77 6 4.236 4.236 0 0 1 11 1.77 4.236 4.236 0 0 1 15.23 6 4.236 4.236 0 0 1 11 10.23M11 1C8.243 1 6 3.243 6 6s2.243 5 5 5 5-2.243 5-5-2.243-5-5-5"/>
    </g>
</svg>
