<svg xmlns="http://www.w3.org/2000/svg" xmlns:xlink="http://www.w3.org/1999/xlink" width="22" height="18" viewBox="0 0 22 18">
    <defs>
        <path id="a" d="M.322.272H14.66v10.701H.322z"/>
        <path id="c" d="M.152.184h17.817V18H.152z"/>
    </defs>
    <g fill="none" fill-rule="evenodd">
        <path fill="#000" d="M4.273 12.924a.402.402 0 0 0 .532-.055.327.327 0 0 0-.06-.487 10.125 10.125 0 0 1-.873-.715l-2.8-2.565L3.96 6.456c2.777-2.542 6.816-3.41 10.54-2.265.199.06.413-.037.48-.218.067-.182-.04-.38-.239-.44-3.998-1.23-8.335-.297-11.317 2.433L0 9.102l3.337 3.056c.295.27.61.529.936.766" opacity=".54"/>
        <g transform="translate(7 5)">
            <mask id="b" fill="#fff">
                <use xlink:href="#a"/>
            </mask>
            <path fill="#000" fill-opacity=".54" d="M11.513 1.615A10.48 10.48 0 0 0 9.943.332a.359.359 0 0 0-.495.097.354.354 0 0 0 .097.492c.522.348 1.014.75 1.463 1.196l2.642 2.625-2.725 2.706C8.288 10.07 4.314 10.955.8 9.704a.355.355 0 1 0-.24.668c1.136.405 2.318.601 3.491.601 2.722 0 5.402-1.056 7.38-3.023l3.23-3.208-3.147-3.127z" mask="url(#b)"/>
        </g>
        <path fill="#000" fill-opacity=".54" d="M10.881 13.254a4.407 4.407 0 0 1-2.302-.645.383.383 0 0 0-.522.12.37.37 0 0 0 .122.513c.81.496 1.744.758 2.702.758C13.704 14 16 11.74 16 8.964c0-1.002-.298-1.97-.863-2.798a.383.383 0 0 0-.526-.103.369.369 0 0 0-.104.517c.48.706.735 1.53.735 2.384 0 2.366-1.957 4.29-4.36 4.29M11.176 5.7c.792 0 1.568.194 2.245.56a.405.405 0 0 0 .525-.123c.108-.166.048-.38-.134-.48A5.553 5.553 0 0 0 11.176 5C8.322 5 6 7.12 6 9.725c0 .73.177 1.429.527 2.079A.389.389 0 0 0 6.87 12a.414.414 0 0 0 .169-.036c.19-.085.269-.295.175-.468a3.704 3.704 0 0 1-.448-1.77c0-2.22 1.978-4.026 4.41-4.026"/>
        <g transform="translate(2)">
            <mask id="d" fill="#fff">
                <use xlink:href="#c"/>
            </mask>
            <path fill="#000" d="M17.86.291a.367.367 0 0 0-.519 0L.26 17.373a.367.367 0 1 0 .52.52L17.86.81a.367.367 0 0 0 0-.52" mask="url(#d)" opacity=".54"/>
        </g>
    </g>
</svg>
