<svg xmlns="http://www.w3.org/2000/svg" xmlns:xlink="http://www.w3.org/1999/xlink" width="144" height="144" viewBox="0 0 144 144">
    <defs>
        <path id="a" d="M72 140c37.494 0 68-30.506 68-68S109.494 4 72 4 4 34.506 4 72s30.506 68 68 68zm0-129.206c33.75 0 61.206 27.456 61.206 61.206S105.75 133.206 72 133.206 10.794 105.75 10.794 72 38.25 10.794 72 10.794zM54.002 89.998a3.378 3.378 0 0 0 2.412.999c.888 0 1.748-.333 2.413-.999l13.2-13.2 13.201 13.2a3.378 3.378 0 0 0 2.413.999c.888 0 1.747-.333 2.413-.999a3.381 3.381 0 0 0 0-4.797L76.798 72l13.2-13.2a3.381 3.381 0 0 0 0-4.798 3.381 3.381 0 0 0-4.797 0L72 67.202l-13.2-13.2a3.381 3.381 0 0 0-4.798 0 3.381 3.381 0 0 0 0 4.797L67.202 72l-13.2 13.2a3.381 3.381 0 0 0 0 4.798z"/>
    </defs>
    <g fill="none" fill-rule="evenodd">
        <mask id="b" fill="#fff">
            <use xlink:href="#a"/>
        </mask>
        <use fill="#000" fill-opacity="0" fill-rule="nonzero" xlink:href="#a"/>
        <path fill="#000" fill-opacity=".54" d="M0 0h144v144H0z" mask="url(#b)" opacity=".87"/>
    </g>
</svg>
