<?xml version="1.0" standalone="no"?>
<!DOCTYPE svg PUBLIC "-//W3C//DTD SVG 20010904//EN"
 "http://www.w3.org/TR/2001/REC-SVG-20010904/DTD/svg10.dtd">
<svg version="1.0" xmlns="http://www.w3.org/2000/svg"
 width="225.000000pt" height="225.000000pt" viewBox="0 0 225.000000 225.000000"
 preserveAspectRatio="xMidYMid meet">
<g transform="translate(0.000000,225.000000) scale(0.100000,-0.100000)"
fill="#000000" stroke="none">
<path d="M977 2050 c-27 -5 -51 -11 -54 -14 -5 -5 2 -40 28 -139 10 -38 11
-39 45 -33 l34 7 0 -49 0 -49 -57 -13 c-66 -14 -140 -45 -199 -83 l-41 -26
-34 35 c-35 36 -35 36 10 63 12 7 9 18 -18 63 -18 29 -41 64 -51 78 l-18 24
-44 -29 c-55 -36 -175 -156 -216 -216 l-31 -47 75 -46 c73 -45 94 -54 94 -38
0 4 7 16 15 26 15 19 16 19 49 -13 l35 -34 -26 -41 c-38 -59 -69 -133 -83
-198 l-13 -58 -49 0 -49 0 6 34 c8 38 13 35 -99 61 -38 8 -71 14 -73 12 -9
-10 -23 -129 -23 -202 0 -73 14 -192 23 -202 2 -2 35 4 73 12 112 26 107 23
99 61 l-6 34 49 0 49 0 13 -57 c14 -66 45 -140 83 -199 l26 -41 -35 -34 c-33
-32 -34 -32 -49 -13 -8 10 -15 22 -15 27 0 15 -21 6 -94 -41 l-75 -48 49 -64
c56 -75 112 -131 190 -189 l54 -40 48 75 c47 73 56 94 41 94 -5 0 -17 7 -27
15 -19 15 -19 16 13 49 l34 35 41 -26 c59 -38 133 -69 199 -83 l57 -13 0 -49
0 -49 -34 7 c-34 6 -35 5 -45 -33 -19 -71 -32 -136 -28 -140 10 -9 129 -23
202 -23 71 0 192 14 201 23 3 2 -6 44 -31 156 -5 20 -10 22 -40 17 l-35 -7 0
48 0 48 83 23 c45 12 112 40 149 61 l66 39 33 -34 c32 -33 32 -34 13 -49 -10
-8 -22 -15 -26 -15 -16 0 -7 -21 40 -94 l47 -75 65 49 c75 56 131 112 188 189
l41 55 -75 48 c-41 26 -79 48 -83 48 -4 0 -14 -11 -21 -25 -7 -14 -16 -25 -20
-25 -3 0 -20 15 -37 33 l-32 32 35 55 c32 50 84 191 84 226 0 10 13 14 50 14
l49 0 -2 -36 -2 -37 83 -19 c46 -11 85 -18 88 -15 10 10 24 127 24 202 0 73
-14 192 -23 202 -4 4 -69 -9 -140 -28 -38 -10 -39 -11 -33 -45 l7 -34 -51 0
c-37 0 -50 4 -50 14 0 36 -52 176 -84 226 l-35 55 35 35 c29 29 37 32 44 20
28 -45 25 -45 104 4 42 26 76 51 76 56 0 4 -20 35 -45 68 -50 66 -133 146
-200 192 l-43 29 -46 -75 c-45 -73 -54 -94 -38 -94 4 0 16 -7 26 -15 19 -15
19 -16 -13 -49 l-34 -35 -41 26 c-59 38 -133 69 -198 83 l-58 13 0 50 0 49 35
-6 c32 -6 35 -5 41 21 3 15 13 54 21 87 8 32 12 60 10 62 -21 21 -254 30 -350
14z m217 -491 c34 -40 34 -80 -2 -120 -40 -45 -94 -45 -133 -1 -37 41 -37 80
-3 121 21 26 33 31 69 31 36 0 48 -5 69 -31z m-289 -83 c49 -49 40 -122 -18
-152 -96 -50 -184 70 -108 147 38 38 91 40 126 5z m566 -5 c73 -73 -6 -190
-102 -151 -38 16 -64 67 -55 105 19 75 103 100 157 46z m-662 -277 c26 -21 31
-33 31 -69 0 -36 -5 -48 -31 -69 -17 -15 -43 -26 -59 -26 -16 0 -42 11 -59 26
-26 21 -31 33 -31 69 0 36 5 48 31 69 17 15 43 26 59 26 16 0 42 -11 59 -26z
m360 11 c53 -27 65 -110 22 -149 -25 -23 -81 -29 -111 -14 -60 32 -64 124 -7
158 38 24 59 25 96 5z m390 -11 c26 -21 31 -33 31 -69 0 -36 -5 -48 -31 -69
-40 -34 -80 -34 -120 2 -25 22 -31 36 -31 67 0 31 6 45 31 67 40 36 80 36 120
2z m-675 -265 c34 -16 61 -69 52 -103 -19 -76 -103 -101 -157 -47 -46 47 -38
115 19 145 33 18 53 19 86 5z m566 -4 c59 -30 68 -98 21 -146 -74 -73 -191 6
-151 102 13 31 51 58 83 59 10 0 31 -7 47 -15z m-255 -117 c32 -38 32 -78 -1
-117 -21 -26 -33 -31 -69 -31 -36 0 -48 5 -69 31 -33 39 -33 79 -1 118 41 48
99 48 140 -1z"/>
</g>
</svg>
